<?xml version="1.0" standalone="no"?>
<!DOCTYPE svg PUBLIC "-//W3C//DTD SVG 20010904//EN"
 "http://www.w3.org/TR/2001/REC-SVG-20010904/DTD/svg10.dtd">
<svg version="1.0" xmlns="http://www.w3.org/2000/svg"
 width="456.000000pt" height="456.000000pt" viewBox="0 0 456.000000 456.000000"
 preserveAspectRatio="xMidYMid meet">
<metadata>
Created by potrace 1.14, written by Peter Selinger 2001-2017
</metadata>
<g transform="translate(0.000000,456.000000) scale(0.100000,-0.100000)"
fill="#000000" stroke="none">
<path d="M0 2280 l0 -2280 2280 0 2280 0 0 2280 0 2280 -2280 0 -2280 0 0
-2280z m2279 928 c141 -400 260 -730 263 -733 3 -3 3 325 0 730 l-5 735 326 0
327 0 2 -1660 c3 -1654 3 -1660 -17 -1660 -11 0 -78 7 -148 15 -70 8 -213 20
-317 26 l-189 12 -11 31 c-112 324 -485 1373 -491 1379 -4 5 -4 -310 -1 -701
l5 -709 -129 -7 c-71 -4 -216 -16 -321 -27 -106 -10 -195 -19 -198 -19 -3 0
-6 747 -7 1660 l-3 1660 328 -2 329 -3 257 -727z"/>
</g>
</svg>
